<?xml version="1.0" standalone="no"?>
<!DOCTYPE svg PUBLIC "-//W3C//DTD SVG 20010904//EN"
 "http://www.w3.org/TR/2001/REC-SVG-20010904/DTD/svg10.dtd">
<svg version="1.0" xmlns="http://www.w3.org/2000/svg"
 width="512.000000pt" height="512.000000pt" viewBox="0 0 512.000000 512.000000"
 preserveAspectRatio="xMidYMid meet">
<metadata>
Created by potrace 1.11, written by Peter Selinger 2001-2013
</metadata>
<g transform="translate(0.000000,512.000000) scale(0.100000,-0.100000)"
fill="#000000" stroke="none">
<path d="M0 2560 l0 -2560 2560 0 2560 0 0 2560 0 2560 -2560 0 -2560 0 0
-2560z m4883 2298 c-22 -24 -343 -380 -712 -791 l-673 -748 -51 52 c-29 28
-119 103 -202 165 -82 62 -160 121 -173 132 l-24 18 929 606 c510 334 932 607
938 607 5 1 -9 -18 -32 -41z m-1908 -695 c-33 -75 -78 -204 -92 -260 -19 -78
-22 -264 -6 -304 7 -16 74 -72 175 -145 90 -65 204 -159 255 -210 88 -86 96
-99 157 -225 35 -74 92 -197 126 -274 250 -561 460 -906 687 -1129 l66 -66 0
-61 c-1 -90 -45 -172 -147 -275 -65 -65 -99 -90 -169 -125 -80 -39 -96 -43
-160 -43 -58 0 -82 5 -122 26 -88 46 -187 169 -249 310 l-24 55 -58 -8 c-285
-39 -483 -11 -635 90 -104 68 -186 161 -319 361 -24 36 -70 99 -101 141 -67
88 -122 185 -140 247 -7 23 -16 42 -21 42 -27 0 -154 -24 -162 -30 -20 -19 48
-186 120 -294 l34 -51 -115 -116 c-260 -265 -306 -422 -205 -704 122 -344 120
-338 120 -406 0 -82 -32 -208 -98 -389 l-49 -135 -832 -3 -831 -2 0 918 0 918
283 270 c155 149 336 321 402 382 449 413 917 751 1387 1001 l117 62 -1 48
c-3 114 151 263 354 345 90 35 164 55 217 55 37 1 42 -1 36 -16z m-1114 -273
c107 -11 257 -36 292 -49 17 -6 7 -15 -59 -51 -111 -62 -239 -139 -380 -231
l-121 -79 -119 39 c-65 22 -285 83 -488 135 -203 53 -371 97 -373 100 -8 8
316 75 497 101 274 41 557 54 751 35z m-777 -450 c238 -62 308 -84 304 -96 -1
-5 -43 -40 -93 -78 -49 -38 -106 -82 -126 -98 l-36 -29 -119 29 c-65 16 -269
58 -452 93 -182 34 -329 66 -325 70 11 9 325 93 463 123 63 13 124 27 135 29
41 10 64 6 249 -43z m-371 -396 c130 -26 237 -50 237 -54 0 -4 -59 -60 -132
-124 -84 -74 -137 -115 -147 -111 -12 3 -472 83 -488 85 -2 0 -3 40 -3 89 l0
89 143 35 c78 20 144 36 147 36 3 1 112 -20 243 -45z m-350 -420 c83 -14 153
-26 154 -28 2 -1 -47 -51 -107 -110 -77 -77 -114 -107 -126 -102 -8 3 -36 6
-60 6 l-44 0 0 130 c0 113 2 130 16 130 9 0 84 -12 167 -26z"/>
<path d="M2975 2866 c-101 -44 -125 -178 -46 -257 65 -65 157 -65 222 0 124
124 -15 327 -176 257z"/>
</g>
</svg>
